<svg width="128" height="50" viewBox="0 0 128 50" fill="none" xmlns="http://www.w3.org/2000/svg">
<g clip-path="url(#clip0_1621_252)">
<path fill-rule="evenodd" clip-rule="evenodd" d="M44.8122 17.7711C45.6021 13.4271 44.8122 2.90701 33.648 0.251548C30.5603 -0.482869 23.1333 -0.0989416 16.5509 8.27163C14.8188 7.25788 12.8107 6.68766 10.6554 6.68766C6.25141 6.68766 2.2169 9.06413 0.669451 13.0074C-1.41278 18.3692 1.2544 24.8795 11.9171 27.6439C10.6903 26.242 5.20354 22.5101 5.59842 18.166C5.83924 15.5171 8.36283 13.822 10.1754 13.2104C13.0938 12.2257 17.2519 12.5187 20.5046 15.4979C22.8446 10.4861 27.3186 8.29315 30.5954 7.50337C36.7966 6.31859 43.6275 9.08299 44.8122 17.7711Z" fill="#147AFF"/>
<path opacity="0.3" fill-rule="evenodd" clip-rule="evenodd" d="M5.59956 18.9555C4.41484 18.9555 0.187986 16.7932 1.05352 12.168C-1.90375 17.7708 1.25554 25.2742 11.9182 27.6436C11.0576 26.4589 5.99451 22.9047 5.59956 18.9555Z" fill="#147AFF"/>
<path fill-rule="evenodd" clip-rule="evenodd" d="M23.5078 14.229C25.1463 13.0058 26.9149 12.2862 28.6545 12.0059C38.9749 10.8478 40.9935 17.9893 39.8511 21.8447C39.6372 22.5668 38.7997 25.3496 36.8719 26.7516C38.7997 26.2259 40.9026 24.2663 41.6036 23.2467C45.459 17.6389 41.6467 8.9526 32.9596 9.40782C29.3961 9.59222 26.0685 11.5822 23.5078 14.229Z" fill="#147AFF"/>
<path opacity="0.5" fill-rule="evenodd" clip-rule="evenodd" d="M32.8867 12.0307C33.0619 10.9792 34.1704 10.663 34.7416 10.4843C36.2733 10.1373 38.715 10.7891 40.0717 11.6802C37.7936 9.75254 35.3998 9.27053 32.8867 9.40205C29.3232 9.58646 26.0411 11.6119 23.4805 14.2587C25.1189 13.0355 26.8875 12.3159 28.6271 12.0356C30.4066 11.8469 31.6599 11.8555 32.8867 12.0307Z" fill="#147AFF"/>
<path d="M10.25 38.3795L28.3388 17.6992H35.7027L17.8063 38.3795H10.25Z" fill="#147AFF"/>
<path d="M23.9609 34.6889L33.0165 44.9366H40.3804L27.8244 30.1816L23.9609 34.6889Z" fill="#147AFF"/>
<path d="M10.0586 17.7432L17.711 26.566L21.5744 22.0588L17.6148 17.7432H10.0586Z" fill="#147AFF"/>
<path d="M70.1033 24.7609H65.475C65.3908 24.1621 65.2179 23.6302 64.9576 23.1653C64.6967 22.6933 64.362 22.2918 63.9538 21.9607C63.5451 21.6296 63.0728 21.376 62.5375 21.1999C62.0092 21.0238 61.4353 20.9357 60.8152 20.9357C59.6951 20.9357 58.7196 21.214 57.888 21.7705C57.0571 22.32 56.4125 23.1231 55.9543 24.1797C55.4967 25.2294 55.2679 26.5044 55.2679 28.0049C55.2679 29.5476 55.4967 30.8438 55.9543 31.8935C56.4196 32.9431 57.0674 33.7356 57.8989 34.271C58.7299 34.8063 59.6918 35.0741 60.7837 35.0741C61.3962 35.0741 61.9636 34.993 62.4848 34.831C63.013 34.669 63.4815 34.433 63.8902 34.123C64.2989 33.806 64.637 33.4221 64.9043 32.9713C65.1793 32.5204 65.3696 32.0062 65.475 31.4285L70.1033 31.4497C69.9837 32.4429 69.6842 33.401 69.2054 34.3238C68.7331 35.2396 68.0956 36.0602 67.2929 36.7858C66.4967 37.5044 65.5456 38.075 64.4397 38.4977C63.3408 38.9133 62.0973 39.1211 60.7098 39.1211C58.7793 39.1211 57.0533 38.6843 55.5321 37.8108C54.0173 36.9373 52.8197 35.6728 51.9392 34.0174C51.0656 32.3619 50.6289 30.3577 50.6289 28.0049C50.6289 25.645 51.0727 23.6373 51.9603 21.9818C52.8479 20.3264 54.0525 19.0654 55.5739 18.1989C57.0956 17.3254 58.8076 16.8887 60.7098 16.8887C61.9636 16.8887 63.1261 17.0648 64.1967 17.417C65.2745 17.7692 66.2288 18.2835 67.0603 18.9598C67.8913 19.629 68.5679 20.4496 69.0891 21.4218C69.6174 22.3939 69.9554 23.507 70.1033 24.7609Z" fill="#147AFF"/>
<path d="M76.3141 17.1846V38.8253H71.8125V17.1846H76.3141Z" fill="#147AFF"/>
<path d="M85.7654 39.1417C84.1241 39.1417 82.7051 38.793 81.5072 38.0955C80.3165 37.3911 79.3974 36.4119 78.7491 35.158C78.1013 33.897 77.7773 32.4353 77.7773 30.7728C77.7773 29.0962 78.1013 27.631 78.7491 26.3771C79.3974 25.1161 80.3165 24.1369 81.5072 23.4394C82.7051 22.735 84.1241 22.3828 85.7654 22.3828C87.4072 22.3828 88.823 22.735 90.0132 23.4394C91.211 24.1369 92.1339 25.1161 92.7817 26.3771C93.4301 27.631 93.754 29.0962 93.754 30.7728C93.754 32.4353 93.4301 33.897 92.7817 35.158C92.1339 36.4119 91.211 37.3911 90.0132 38.0955C88.823 38.793 87.4072 39.1417 85.7654 39.1417ZM85.7866 35.6546C86.5333 35.6546 87.1567 35.4433 87.6572 35.0206C88.1572 34.5909 88.5339 34.0062 88.7877 33.2666C89.0485 32.5269 89.1784 31.685 89.1784 30.7411C89.1784 29.7971 89.0485 28.9553 88.7877 28.2156C88.5339 27.476 88.1572 26.8913 87.6572 26.4616C87.1567 26.0318 86.5333 25.817 85.7866 25.817C85.0328 25.817 84.3991 26.0318 83.885 26.4616C83.3773 26.8913 82.9936 27.476 82.7328 28.2156C82.4795 28.9553 82.3523 29.7971 82.3523 30.7411C82.3523 31.685 82.4795 32.5269 82.7328 33.2666C82.9936 34.0062 83.3773 34.5909 83.885 35.0206C84.3991 35.4433 85.0328 35.6546 85.7866 35.6546Z" fill="#147AFF"/>
<path d="M105.602 31.9146V22.5947H110.103V38.8253H105.781V35.8771H105.612C105.246 36.8282 104.637 37.5925 103.784 38.1701C102.939 38.7478 101.907 39.0366 100.688 39.0366C99.6031 39.0366 98.6488 38.7901 97.8249 38.2969C97.0004 37.8038 96.3559 37.1029 95.8912 36.1941C95.433 35.2854 95.2004 34.197 95.1934 32.929V22.5947H99.695V32.1259C99.7021 33.084 99.9591 33.8413 100.466 34.3978C100.974 34.9543 101.653 35.2326 102.506 35.2326C103.048 35.2326 103.555 35.1093 104.028 34.8627C104.499 34.6091 104.88 34.2358 105.168 33.7427C105.465 33.2496 105.609 32.6402 105.602 31.9146Z" fill="#147AFF"/>
<path d="M118.196 39.0895C116.964 39.0895 115.848 38.7724 114.847 38.1384C113.853 37.4974 113.065 36.557 112.48 35.3171C111.902 34.0702 111.613 32.5416 111.613 30.7311C111.613 28.8714 111.913 27.3251 112.512 26.0923C113.111 24.8525 113.907 23.9261 114.9 23.3133C115.9 22.6934 116.995 22.3834 118.186 22.3834C119.095 22.3834 119.852 22.5384 120.458 22.8484C121.071 23.1513 121.564 23.5317 121.937 23.9896C122.318 24.4404 122.606 24.8842 122.803 25.321H122.941V17.1846H127.432V38.8253H122.994V36.2258H122.803C122.593 36.6767 122.293 37.124 121.906 37.5678C121.525 38.0046 121.028 38.3674 120.415 38.6562C119.81 38.945 119.07 39.0895 118.196 39.0895ZM119.623 35.5073C120.349 35.5073 120.962 35.3101 121.462 34.9155C121.969 34.514 122.356 33.954 122.624 33.2354C122.899 32.5169 123.036 31.6751 123.036 30.71C123.036 29.7449 122.902 28.9066 122.634 28.1951C122.367 27.4836 121.98 26.9341 121.473 26.5467C120.965 26.1592 120.349 25.9655 119.623 25.9655C118.883 25.9655 118.26 26.1663 117.753 26.5678C117.246 26.9693 116.862 27.5259 116.601 28.2374C116.34 28.9489 116.21 29.7731 116.21 30.71C116.21 31.654 116.34 32.4887 116.601 33.2143C116.869 33.9329 117.252 34.4964 117.753 34.905C118.26 35.3065 118.883 35.5073 119.623 35.5073Z" fill="#147AFF"/>
</g>
<defs>
<clipPath id="clip0_1621_252">
<rect width="127.717" height="50" fill="white"/>
</clipPath>
</defs>
</svg>
