<svg width="386" height="304" viewBox="0 0 386 304" fill="none" xmlns="http://www.w3.org/2000/svg">
<path d="M309.174 248.01L257.66 218.024L258.026 217.406L309.174 247.174L346.244 225.738L346.61 226.368L309.174 248.01Z" fill="#BECEF9"/>
<path d="M255.114 224.301L254.754 224.926L318.238 261.635L318.598 261.011L255.114 224.301Z" fill="#BECEF9"/>
<path d="M280.973 281.33L258.267 268.123L278.996 256.14L236.738 231.59L237.104 230.961L280.436 256.14L259.718 268.123L281.339 280.701L280.973 281.33Z" fill="#BECEF9"/>
<path d="M356.644 246.239L313.998 221.747L294.274 233.284L294.091 233.181C282.424 226.222 264.735 215.784 263.832 215.487L263.969 214.777C264.758 214.892 287.121 228.179 294.286 232.448L313.986 221.003L314.169 221.106L356.998 245.701L356.644 246.239Z" fill="#BECEF9"/>
<path d="M316.146 260.064C316.84 259.711 317.607 259.527 318.386 259.527C319.164 259.527 319.931 259.711 320.625 260.064C320.897 260.154 321.134 260.327 321.301 260.56C321.469 260.792 321.559 261.071 321.559 261.357C321.559 261.644 321.469 261.923 321.301 262.155C321.134 262.388 320.897 262.561 320.625 262.651C319.929 263.004 319.16 263.188 318.38 263.188C317.6 263.188 316.831 263.004 316.135 262.651C315.869 262.554 315.639 262.378 315.477 262.146C315.315 261.913 315.229 261.637 315.23 261.353C315.232 261.07 315.32 260.794 315.484 260.563C315.648 260.333 315.879 260.158 316.146 260.064V260.064Z" fill="#96AAFE"/>
<path d="M344.199 224.697C344.893 224.344 345.66 224.16 346.439 224.16C347.217 224.16 347.984 224.344 348.678 224.697C348.95 224.787 349.186 224.96 349.354 225.192C349.522 225.424 349.612 225.704 349.612 225.99C349.612 226.277 349.522 226.556 349.354 226.788C349.186 227.02 348.95 227.194 348.678 227.283C347.983 227.634 347.216 227.816 346.439 227.816C345.661 227.816 344.894 227.634 344.199 227.283C343.933 227.188 343.702 227.013 343.539 226.781C343.376 226.55 343.289 226.273 343.289 225.99C343.289 225.707 343.376 225.431 343.539 225.199C343.702 224.968 343.933 224.792 344.199 224.697V224.697Z" fill="#50CEF5"/>
<path d="M353.662 244.177C354.356 243.825 355.123 243.641 355.901 243.641C356.68 243.641 357.447 243.825 358.141 244.177C358.413 244.267 358.649 244.441 358.817 244.673C358.984 244.905 359.075 245.184 359.075 245.471C359.075 245.757 358.984 246.036 358.817 246.269C358.649 246.501 358.413 246.674 358.141 246.764C357.446 247.114 356.679 247.297 355.901 247.297C355.124 247.297 354.357 247.114 353.662 246.764C353.395 246.669 353.165 246.493 353.002 246.262C352.839 246.03 352.752 245.754 352.752 245.471C352.752 245.187 352.839 244.911 353.002 244.68C353.165 244.448 353.395 244.273 353.662 244.177V244.177Z" fill="#50CEF5"/>
<path d="M278.904 279.736C279.598 279.383 280.365 279.199 281.144 279.199C281.922 279.199 282.689 279.383 283.383 279.736C283.655 279.826 283.891 279.999 284.059 280.231C284.227 280.464 284.317 280.743 284.317 281.029C284.317 281.316 284.227 281.595 284.059 281.827C283.891 282.059 283.655 282.233 283.383 282.323C282.689 282.675 281.922 282.859 281.144 282.859C280.365 282.859 279.598 282.675 278.904 282.323C278.638 282.227 278.407 282.052 278.244 281.82C278.082 281.589 277.994 281.312 277.994 281.029C277.994 280.746 278.082 280.47 278.244 280.238C278.407 280.007 278.638 279.831 278.904 279.736V279.736Z" fill="#50CEF5"/>
<g style="mix-blend-mode:overlay">
<g style="mix-blend-mode:overlay" opacity="0.17">
<path d="M369.9 212.281C382.984 219.846 382.984 232.103 369.9 239.669C356.816 247.234 335.618 247.234 322.522 239.669C309.427 232.103 309.438 219.846 322.522 212.281C335.607 204.716 356.77 204.67 369.9 212.281Z" fill="#929394"/>
</g>
<g style="mix-blend-mode:overlay" opacity="0.33">
<path d="M365.455 214.859C376.083 220.994 376.083 230.962 365.455 237.108C354.828 243.254 337.596 243.254 326.969 237.108C316.341 230.962 316.341 220.994 326.969 214.859C337.596 208.725 354.828 208.713 365.455 214.859Z" fill="#A4A7A9"/>
</g>
<g style="mix-blend-mode:overlay" opacity="0.5">
<path d="M360.998 217.422C369.169 222.149 369.169 229.806 360.998 234.59C352.828 239.374 339.595 239.317 331.425 234.59C323.254 229.863 323.254 222.206 331.425 217.422C339.595 212.638 352.839 212.684 360.998 217.422Z" fill="#B7BBBF"/>
</g>
<g style="mix-blend-mode:overlay" opacity="0.67">
<path d="M356.552 219.996C362.266 223.304 362.266 228.66 356.552 231.956C350.839 235.252 341.583 235.264 335.869 231.956C330.156 228.649 330.156 223.304 335.869 219.996C341.583 216.689 350.839 216.689 356.552 219.996Z" fill="#CACED4"/>
</g>
<g style="mix-blend-mode:overlay" opacity="0.83">
<path d="M352.108 222.572C355.365 224.449 355.365 227.505 352.108 229.439C350.282 230.37 348.261 230.855 346.212 230.855C344.163 230.855 342.142 230.37 340.316 229.439C337.059 227.562 337.059 224.506 340.316 222.572C342.142 221.641 344.163 221.156 346.212 221.156C348.261 221.156 350.282 221.641 352.108 222.572V222.572Z" fill="#DCE2E9"/>
</g>
<g style="mix-blend-mode:overlay">
<path d="M347.628 225.144C347.802 225.203 347.954 225.315 348.062 225.465C348.17 225.615 348.228 225.795 348.228 225.98C348.228 226.164 348.17 226.344 348.062 226.494C347.954 226.644 347.802 226.757 347.628 226.815C347.179 227.041 346.684 227.158 346.182 227.158C345.68 227.158 345.185 227.041 344.737 226.815C343.937 226.346 343.937 225.602 344.737 225.144C345.184 224.913 345.679 224.793 346.182 224.793C346.685 224.793 347.181 224.913 347.628 225.144V225.144Z" fill="#96AAFE"/>
</g>
</g>
<g style="mix-blend-mode:overlay">
<g style="mix-blend-mode:overlay" opacity="0.17">
<path d="M304.843 267.295C317.927 274.86 317.927 287.118 304.843 294.683C291.759 302.248 270.561 302.248 257.466 294.683C244.37 287.118 244.382 274.86 257.466 267.295C270.55 259.73 291.759 259.73 304.843 267.295Z" fill="#929394"/>
</g>
<g style="mix-blend-mode:overlay" opacity="0.33">
<path d="M300.387 269.907C311.015 276.053 311.015 286.022 300.387 292.168C289.76 298.314 272.539 298.314 261.912 292.168C251.285 286.022 251.285 276.053 261.912 269.907C272.539 263.762 289.771 263.727 300.387 269.907Z" fill="#A4A7A9"/>
</g>
<g style="mix-blend-mode:overlay" opacity="0.5">
<path d="M295.941 272.436C304.112 277.162 304.112 284.819 295.941 289.546C287.771 294.273 274.526 294.273 266.356 289.546C258.186 284.819 258.197 277.162 266.356 272.436C274.515 267.709 287.771 267.709 295.941 272.436Z" fill="#B7BBBF"/>
</g>
<g style="mix-blend-mode:overlay" opacity="0.67">
<path d="M291.496 275.012C297.209 278.32 297.209 283.676 291.496 286.972C285.782 290.268 276.526 290.279 270.813 286.972C265.099 283.664 265.099 278.32 270.813 275.012C276.526 271.704 285.782 271.704 291.496 275.012Z" fill="#CACED4"/>
</g>
<g style="mix-blend-mode:overlay" opacity="0.83">
<path d="M287.064 277.584C290.309 279.461 290.309 282.517 287.064 284.394C285.237 285.324 283.217 285.809 281.167 285.809C279.118 285.809 277.097 285.324 275.271 284.394C272.014 282.517 272.014 279.461 275.271 277.584C277.097 276.653 279.118 276.168 281.167 276.168C283.217 276.168 285.237 276.653 287.064 277.584V277.584Z" fill="#96AAFE"/>
</g>
<g style="mix-blend-mode:overlay">
<path d="M282.595 280.207C283.394 280.665 283.394 281.351 282.595 281.878C282.146 282.103 281.651 282.221 281.149 282.221C280.647 282.221 280.152 282.103 279.703 281.878C278.904 281.409 278.904 280.665 279.703 280.207C280.15 279.976 280.646 279.855 281.149 279.855C281.652 279.855 282.148 279.976 282.595 280.207Z" fill="#147AFF"/>
</g>
</g>
<path d="M227.778 22.0995L248.21 33.9565C239.868 29.1038 228.315 29.7905 215.563 37.1611C212.773 38.776 210.1 40.5849 207.564 42.5745L187.166 30.7061C189.707 28.7219 192.379 26.9132 195.165 25.2926C207.895 17.9221 219.436 17.2354 227.778 22.0995Z" fill="#C6D5FA"/>
<path d="M140.647 21.3214C172.849 2.70047 199.954 12.5202 207.553 42.5746C210.09 40.585 212.763 38.7761 215.552 37.1612C240.898 22.5117 261.501 34.277 261.581 63.4845C261.661 90.7921 243.697 123.696 220.592 139.788L66.4041 229.161C41.07 243.811 20.4667 232.045 20.3753 202.838C20.2839 173.63 40.7729 138.163 66.0842 123.513C68.6419 122.026 71.3172 120.751 74.0832 119.702C81.4881 81.0639 108.445 39.9422 140.647 21.3214Z" fill="#EFF6FE"/>
<path d="M45.8231 231.12C32.659 231.12 24.7742 220.556 24.717 202.874C24.6371 175.154 44.1433 141.255 68.2776 127.338C70.6254 125.972 73.0787 124.797 75.6138 123.824L77.8993 122.966L78.3564 120.574C85.7269 82.0499 112.238 42.7481 142.829 25.0886C152.862 19.286 162.792 16.2188 171.534 16.2188C187.589 16.2188 198.879 25.9584 203.359 43.6866L204.981 50.1301L210.226 46.0442C212.6 44.186 215.097 42.4921 217.7 40.9741C224.179 37.2316 230.544 35.2517 236.121 35.2517C249.285 35.2517 257.169 45.8039 257.215 63.4977C257.295 88.8253 240.189 120.722 218.294 136.081L218.18 136.15L64.2438 225.421C57.7646 229.14 51.3996 231.12 45.8231 231.12ZM171.523 19.1029C163.283 19.1029 153.856 22.0442 144.269 27.595C114.341 44.8883 88.4009 83.3432 81.1903 121.111L80.4247 125.094L76.6309 126.525C74.24 127.436 71.9277 128.542 69.7174 129.832C46.4287 143.303 27.5396 176.07 27.6081 202.874C27.6081 218.748 34.4645 228.225 45.8231 228.225C50.8854 228.225 56.759 226.382 62.7811 222.891L216.671 133.621C237.857 118.742 254.381 87.9098 254.313 63.4405C254.313 47.5664 247.456 38.09 236.109 38.09C231.035 38.09 225.173 39.9326 219.14 43.4233C216.649 44.8781 214.259 46.4994 211.986 48.276L203.256 55.0857L200.536 44.3389C196.422 28.0757 186.115 19.1029 171.523 19.1029Z" fill="#CDDCFB"/>
<path d="M74.0834 119.748L53.6973 107.879C61.1021 69.1613 88.0704 28.074 120.272 9.45312L140.647 21.3215C108.445 39.9424 81.4883 81.064 74.0834 119.748Z" fill="#CDDCFB"/>
<path d="M169.215 4.64719L189.601 16.5156C177.088 9.2366 159.776 10.2666 140.647 21.3224L120.227 9.45404C139.39 -1.60176 156.714 -2.63178 169.215 4.64719Z" fill="#CDDCFB"/>
<path d="M33.7562 232.354L13.3815 220.497C5.14251 215.702 0.0345153 205.516 0.000233681 191.026C-0.0797568 161.865 20.3864 126.351 45.7091 111.702C48.269 110.215 50.944 108.937 53.7082 107.879L74.0943 119.747C71.3283 120.796 68.653 122.071 66.0953 123.558C40.7611 138.208 20.2836 173.733 20.3864 202.883C20.4207 217.372 25.5286 227.558 33.7562 232.354Z" fill="#C6D5FA"/>
<path d="M154.073 67.8349L164.027 62.0781V106.507L173.934 100.773L159.044 139.194L144.166 117.987L154.073 112.253V67.8349Z" fill="#CDDCFB"/>
<path d="M114.307 120.643L129.196 82.2227L144.075 103.43L134.167 109.164V153.582L124.214 159.339V114.921L114.307 120.643Z" fill="#CDDCFB"/>
<path d="M136.441 209.602L132.898 207.531C131.527 206.73 130.67 205.036 130.67 202.621L134.212 204.693C134.224 207.096 135.081 208.801 136.441 209.602Z" fill="#BECEF9"/>
<path d="M136.441 209.602L132.898 207.531C131.527 206.73 130.67 205.036 130.67 202.621L134.212 204.693C134.224 207.096 135.081 208.801 136.441 209.602Z" fill="#BECEF9"/>
<path d="M134.213 204.692L130.671 202.62L130.465 130.746L134.019 132.806L134.213 204.692Z" fill="#BECEF9"/>
<path d="M141.619 119.611L138.076 117.539L240.818 58.1289L244.361 60.2004L141.619 119.611Z" fill="#BECEF9"/>
<path d="M134.007 132.807L130.465 130.747C130.605 128.102 131.366 125.527 132.686 123.232C134.007 120.937 135.849 118.987 138.064 117.539L141.618 119.611C139.4 121.053 137.554 123.001 136.232 125.294C134.909 127.587 134.147 130.162 134.007 132.807Z" fill="#BECEF9"/>
<path d="M134.007 132.808L130.465 130.748C130.502 128.744 130.962 126.771 131.813 124.957L135.356 127.017C134.511 128.833 134.051 130.805 134.007 132.808V132.808Z" fill="#BECEF9"/>
<path d="M135.355 127.015L131.812 124.955C132.477 123.455 133.338 122.05 134.372 120.777L137.926 122.849C136.887 124.116 136.022 125.517 135.355 127.015Z" fill="#BECEF9"/>
<path d="M137.927 122.85L134.373 120.778C135.406 119.491 136.655 118.395 138.064 117.539L141.618 119.611C140.204 120.46 138.954 121.557 137.927 122.85V122.85Z" fill="#BECEF9"/>
<path d="M244.36 60.201C248.577 57.7632 252.005 59.7203 252.017 64.573L252.222 136.447C252.083 139.094 251.321 141.669 249.998 143.965C248.676 146.26 246.83 148.21 244.612 149.655L141.87 209.065C137.653 211.503 134.225 209.546 134.213 204.693L134.008 132.808C134.147 130.163 134.909 127.588 136.232 125.295C137.555 123.002 139.4 121.054 141.618 119.612L244.36 60.201Z" fill="#ABBEF0"/>
<path d="M248.029 136.47C247.883 138.373 247.311 140.22 246.355 141.872C245.4 143.524 244.086 144.94 242.51 146.015L139.768 205.437C139.416 205.657 139.03 205.815 138.625 205.906C138.492 205.508 138.43 205.089 138.442 204.67V204.017L138.236 132.796C138.381 130.893 138.951 129.047 139.905 127.395C140.858 125.743 142.17 124.326 143.744 123.251L245.538 64.3894L246.486 63.8286C246.854 63.5998 247.261 63.4408 247.686 63.3594C247.813 63.755 247.875 64.1686 247.869 64.584L248.029 136.47Z" fill="#91A8E4"/>
<path d="M245.698 135.612C245.555 137.513 244.989 139.358 244.039 141.01C243.09 142.662 241.782 144.079 240.213 145.157L138.43 204.019L138.225 132.797C138.369 130.894 138.94 129.048 139.893 127.396C140.846 125.744 142.159 124.327 143.733 123.252L245.526 64.3906L245.698 135.612Z" fill="#BECEF9"/>
<g style="mix-blend-mode:screen">
<path d="M163.306 111.909L138.258 152.333L138.304 167.634L182.881 100.602L163.306 111.909Z" fill="#96AAFE" fill-opacity="0.5"/>
</g>
<g style="mix-blend-mode:screen">
<path d="M138.361 186.656L138.407 204.018L143.904 200.847L232.293 72.0234L202.685 89.145L138.361 186.656Z" fill="#96AAFE" fill-opacity="0.5"/>
</g>
<path d="M246.246 57.6017L249.789 59.6618C248.406 58.8607 246.486 58.9751 244.361 60.1997L240.818 58.1282C242.932 56.9036 244.864 56.7892 246.246 57.6017Z" fill="#BECEF9"/>
<path d="M324.031 190.375V194.484C324.031 196.063 322.98 197.654 320.9 198.856V194.747C322.98 193.545 324.02 191.954 324.031 190.375Z" fill="#98A4E0"/>
<path d="M324.031 190.375V194.484C324.029 194.988 323.924 195.487 323.723 195.949V191.84C323.924 191.378 324.029 190.879 324.031 190.375V190.375Z" fill="#BECEF9"/>
<path d="M323.723 191.84V195.949C323.126 197.201 322.134 198.223 320.9 198.856V194.747C322.134 194.114 323.126 193.093 323.723 191.84V191.84Z" fill="#BECEF9"/>
<path d="M137.961 217.703V213.594C137.961 215.207 139.012 216.821 141.138 218.046V222.155C139.012 220.93 137.95 219.316 137.961 217.703Z" fill="#98A4E0"/>
<path d="M141.15 218.046V222.155C139.024 220.93 137.961 219.316 137.973 217.703V213.594C137.961 215.207 139.024 216.821 141.15 218.046Z" fill="#BECEF9"/>
<path d="M320.911 194.746L320.9 198.855L218.82 258.265L218.832 254.157L320.911 194.746Z" fill="#BECEF9"/>
<path d="M203.611 254.156L203.6 258.264L141.139 222.156L141.15 218.047L203.611 254.156Z" fill="#BECEF9"/>
<path d="M218.832 254.168V258.277C216.474 259.476 213.867 260.101 211.222 260.101C208.577 260.101 205.97 259.476 203.611 258.277V254.168C205.97 255.367 208.577 255.992 211.222 255.992C213.867 255.992 216.474 255.367 218.832 254.168V254.168Z" fill="#98A4E0"/>
<path d="M218.832 254.168V258.277C216.434 259.556 213.743 260.184 211.027 260.096V255.988C213.743 256.075 216.434 255.447 218.832 254.168V254.168Z" fill="#BECEF9"/>
<path d="M211.028 255.988V260.096C208.442 260.123 205.892 259.498 203.611 258.277V254.168C205.892 255.389 208.442 256.015 211.028 255.988Z" fill="#BECEF9"/>
<path d="M320.855 185.921C325.06 188.359 325.094 192.319 320.855 194.745L218.787 254.167C216.428 255.367 213.821 255.992 211.176 255.992C208.531 255.992 205.924 255.367 203.566 254.167L141.104 218.047C136.876 215.61 136.865 211.65 141.047 209.212L243.127 149.801C245.484 148.599 248.092 147.973 250.737 147.973C253.382 147.973 255.99 148.599 258.348 149.801L320.855 185.921Z" fill="#ECF5FE"/>
<path d="M299.931 180.816C299.759 181.448 299.454 182.035 299.036 182.539C298.618 183.042 298.097 183.45 297.509 183.734L200.446 240.146C198.58 241.095 196.516 241.589 194.424 241.589C192.331 241.589 190.268 241.095 188.402 240.146L146.715 216.112C145.603 215.565 144.743 214.61 144.315 213.445C143.858 211.923 144.647 210.298 146.669 209.131L243.732 152.684C245.598 151.736 247.662 151.242 249.754 151.242C251.847 151.242 253.91 151.736 255.776 152.684L297.463 176.719C299.383 177.863 300.205 179.362 299.931 180.816Z" fill="#98A4E0"/>
<path d="M299.932 180.819C299.76 181.45 299.455 182.038 299.037 182.541C298.619 183.045 298.098 183.453 297.51 183.737L200.447 240.149C198.581 241.097 196.517 241.592 194.425 241.592C192.332 241.592 190.269 241.097 188.403 240.149L146.716 216.115C145.604 215.568 144.745 214.613 144.316 213.448C144.487 212.815 144.791 212.225 145.209 211.719C145.627 211.214 146.149 210.804 146.739 210.518L243.802 154.083C245.668 153.13 247.734 152.633 249.83 152.633C251.925 152.633 253.991 153.13 255.857 154.083L297.544 178.118C298.656 178.678 299.511 179.645 299.932 180.819V180.819Z" fill="#BECEF9"/>
<path d="M256.153 157.758V158.445L249.982 162.027V161.352L256.153 157.758Z" fill="#242A31"/>
<path d="M249.983 161.352V162.027L243.789 158.445V157.758L249.983 161.352Z" fill="#242A31"/>
<path d="M248.417 162.266L248.405 162.952L242.246 166.535V165.848L248.417 162.266Z" fill="#242A31"/>
<path d="M242.246 165.848V166.535L236.041 162.952V162.266L242.246 165.848Z" fill="#242A31"/>
<path d="M240.669 166.766V167.452L234.51 171.046V170.359L240.669 166.766Z" fill="#242A31"/>
<path d="M234.51 170.36V171.046L228.305 167.453V166.777L234.51 170.36Z" fill="#242A31"/>
<path d="M232.932 171.273L232.921 171.96L226.762 175.542V174.867L232.932 171.273Z" fill="#242A31"/>
<path d="M226.762 174.867V175.542L220.568 171.96V171.273L226.762 174.867Z" fill="#242A31"/>
<path d="M225.185 175.781V176.468L219.025 180.05V179.364L225.185 175.781Z" fill="#242A31"/>
<path d="M219.025 179.364V180.05L212.82 176.468V175.781L219.025 179.364Z" fill="#242A31"/>
<path d="M217.448 180.293V180.968L211.277 184.562V183.875L217.448 180.293Z" fill="#242A31"/>
<path d="M211.277 183.875V184.562L205.072 180.98L205.084 180.293L211.277 183.875Z" fill="#242A31"/>
<path d="M209.7 184.789V185.476L203.541 189.069V188.383L209.7 184.789Z" fill="#242A31"/>
<path d="M203.541 188.383V189.07L197.336 185.476V184.801L203.541 188.383Z" fill="#242A31"/>
<path d="M201.966 189.301V189.987L195.795 193.57V192.883L201.966 189.301Z" fill="#242A31"/>
<path d="M195.795 192.883V193.57L189.59 189.987L189.601 189.301L195.795 192.883Z" fill="#242A31"/>
<path d="M194.229 193.809L194.218 194.484L188.059 198.078V197.391L194.229 193.809Z" fill="#242A31"/>
<path d="M188.059 197.391V198.078L181.854 194.495V193.809L188.059 197.391Z" fill="#242A31"/>
<path d="M186.481 198.316V198.992L180.311 202.585L180.322 201.899L186.481 198.316Z" fill="#242A31"/>
<path d="M180.322 201.899L180.311 202.585L174.117 198.992V198.316L180.322 201.899Z" fill="#242A31"/>
<path d="M178.734 202.816V203.503L172.574 207.085V206.399L178.734 202.816Z" fill="#242A31"/>
<path d="M172.574 206.399V207.085L166.369 203.503L166.381 202.816L172.574 206.399Z" fill="#242A31"/>
<path d="M170.997 207.324V208.011L164.838 211.593V210.906L170.997 207.324Z" fill="#242A31"/>
<path d="M164.838 210.906V211.593L158.633 208.011V207.324L164.838 210.906Z" fill="#242A31"/>
<path d="M163.261 211.824L163.249 212.511L157.09 216.105V215.418L163.261 211.824Z" fill="#242A31"/>
<path d="M157.09 215.418V216.105L150.885 212.523V211.836L157.09 215.418Z" fill="#242A31"/>
<path d="M263.557 162.438V163.124L251.01 170.426V169.739L263.557 162.438Z" fill="#242A31"/>
<path d="M251.01 169.739V170.425L244.805 166.843L244.816 166.156L251.01 169.739Z" fill="#242A31"/>
<path d="M249.616 170.551V171.237L243.445 174.831V174.144L249.616 170.551Z" fill="#242A31"/>
<path d="M243.445 174.145V174.831L237.24 171.238L237.252 170.562L243.445 174.145Z" fill="#242A31"/>
<path d="M242.224 174.855V175.542L236.064 179.124V178.438L242.224 174.855Z" fill="#242A31"/>
<path d="M236.064 178.438V179.124L229.859 175.542V174.855L236.064 178.438Z" fill="#242A31"/>
<path d="M234.841 179.148V179.835L228.682 183.429V182.742L234.841 179.148Z" fill="#242A31"/>
<path d="M228.682 182.742V183.429L222.477 179.835V179.16L228.682 182.742Z" fill="#242A31"/>
<path d="M227.458 183.449L227.446 184.136L221.287 187.718L221.299 187.031L227.458 183.449Z" fill="#242A31"/>
<path d="M221.299 187.031L221.287 187.718L215.094 184.136V183.449L221.299 187.031Z" fill="#242A31"/>
<path d="M220.077 187.754L220.066 188.441L213.906 192.023V191.336L220.077 187.754Z" fill="#242A31"/>
<path d="M213.906 191.336V192.023L207.701 188.441L207.713 187.754L213.906 191.336Z" fill="#242A31"/>
<path d="M212.685 192.047V192.734L206.525 196.316V195.641L212.685 192.047Z" fill="#242A31"/>
<path d="M206.525 195.641V196.316L200.32 192.734L200.332 192.047L206.525 195.641Z" fill="#242A31"/>
<path d="M205.302 196.348V197.034L199.131 200.617V199.93L205.302 196.348Z" fill="#242A31"/>
<path d="M199.131 199.93V200.617L192.938 197.034V196.348L199.131 199.93Z" fill="#242A31"/>
<path d="M197.919 200.641V201.327L191.748 204.921V204.234L197.919 200.641Z" fill="#242A31"/>
<path d="M191.748 204.234V204.921L185.555 201.327V200.641L191.748 204.234Z" fill="#242A31"/>
<path d="M190.538 204.945V205.621L184.367 209.214V208.528L190.538 204.945Z" fill="#242A31"/>
<path d="M184.367 208.528V209.214L178.162 205.632V204.945L184.367 208.528Z" fill="#242A31"/>
<path d="M183.155 209.238L183.144 209.925L176.984 213.519V212.832L183.155 209.238Z" fill="#242A31"/>
<path d="M176.984 212.832V213.519L170.779 209.925V209.238L176.984 212.832Z" fill="#242A31"/>
<path d="M175.693 213.586V214.261L164.803 220.602V219.915L175.693 213.586Z" fill="#242A31"/>
<path d="M164.803 219.914V220.601L158.598 217.019L158.609 216.332L164.803 219.914Z" fill="#242A31"/>
<path d="M271.316 166.926L271.305 167.612L255.684 176.7V176.013L271.316 166.926Z" fill="#242A31"/>
<path d="M255.683 176.012V176.699L249.479 173.116V172.43L255.683 176.012Z" fill="#242A31"/>
<path d="M254.29 176.836V177.511L248.119 181.105V180.418L254.29 176.836Z" fill="#242A31"/>
<path d="M248.119 180.418V181.105L241.914 177.511V176.836L248.119 180.418Z" fill="#242A31"/>
<path d="M246.999 181.07V181.757L240.84 185.339V184.653L246.999 181.07Z" fill="#242A31"/>
<path d="M240.84 184.653V185.339L234.635 181.757V181.07L240.84 184.653Z" fill="#242A31"/>
<path d="M239.72 185.305V185.991L233.561 189.574V188.887L239.72 185.305Z" fill="#242A31"/>
<path d="M233.56 188.887V189.574L227.355 185.991V185.305L233.56 188.887Z" fill="#242A31"/>
<path d="M232.452 189.539L232.441 190.226L226.281 193.808L226.293 193.133L232.452 189.539Z" fill="#242A31"/>
<path d="M226.293 193.133L226.281 193.808L220.076 190.226V189.539L226.293 193.133Z" fill="#242A31"/>
<path d="M225.173 193.773V194.46L219.002 198.042L219.013 197.367L225.173 193.773Z" fill="#242A31"/>
<path d="M219.013 197.367L219.002 198.042L212.797 194.46V193.773L219.013 197.367Z" fill="#242A31"/>
<path d="M217.895 198.008V198.695L211.725 202.288L211.736 201.602L217.895 198.008Z" fill="#242A31"/>
<path d="M211.736 201.602L211.725 202.288L205.52 198.695L205.531 198.008L211.736 201.602Z" fill="#242A31"/>
<path d="M210.616 202.254V202.929L204.457 206.523V205.836L210.616 202.254Z" fill="#242A31"/>
<path d="M204.457 205.836V206.523L198.252 202.929V202.242L204.457 205.836Z" fill="#242A31"/>
<path d="M203.337 206.488V207.175L197.166 210.757V210.071L203.337 206.488Z" fill="#242A31"/>
<path d="M197.166 210.071V210.757L190.961 207.164V206.488L197.166 210.071Z" fill="#242A31"/>
<path d="M196.057 210.723V211.409L189.887 214.992L189.898 214.305L196.057 210.723Z" fill="#242A31"/>
<path d="M189.898 214.305L189.887 214.992L183.682 211.409L183.693 210.723L189.898 214.305Z" fill="#242A31"/>
<path d="M188.275 215.258L188.264 215.944L172.562 225.089V224.402L188.275 215.258Z" fill="#242A31"/>
<path d="M172.562 224.402V225.089L166.346 221.495L166.357 220.809L172.562 224.402Z" fill="#242A31"/>
<path d="M271.121 175.887V176.573L267.59 178.633V177.947L271.121 175.887Z" fill="#242A31"/>
<path d="M267.591 177.947V178.634L261.5 175.109V174.422L267.591 177.947Z" fill="#242A31"/>
<path d="M278.994 180.43V181.117L271.121 176.573V175.887L278.994 180.43Z" fill="#242A31"/>
<path d="M286.812 175.887V176.573L278.996 181.117V180.43L286.812 175.887Z" fill="#242A31"/>
<path d="M260.129 182.422V183.109L253.924 179.515V178.828L260.129 182.422Z" fill="#242A31"/>
<path d="M266.288 178.84V179.515L260.129 183.109V182.422L266.288 178.84Z" fill="#242A31"/>
<path d="M271.281 184.93V185.605L265.064 182.023L265.076 181.336L271.281 184.93Z" fill="#242A31"/>
<path d="M277.441 181.336V182.023L271.281 185.605V184.93L277.441 181.336Z" fill="#242A31"/>
<path d="M294.834 180.52L294.822 181.206L279.201 190.305V189.618L294.834 180.52Z" fill="#242A31"/>
<path d="M279.201 189.617V190.304L272.996 186.71V186.023L279.201 189.617Z" fill="#242A31"/>
<path d="M258.941 183.109V183.796L252.781 187.378V186.703L258.941 183.109Z" fill="#242A31"/>
<path d="M252.781 186.703V187.378L246.576 183.796V183.109L252.781 186.703Z" fill="#242A31"/>
<path d="M251.593 187.387V188.073L245.434 191.656V190.98L251.593 187.387Z" fill="#242A31"/>
<path d="M245.433 190.98V191.656L239.217 188.073L239.228 187.387L245.433 190.98Z" fill="#242A31"/>
<path d="M244.245 191.668V192.343L238.086 195.937V195.25L244.245 191.668Z" fill="#242A31"/>
<path d="M238.086 195.25V195.937L231.881 192.343V191.668L238.086 195.25Z" fill="#242A31"/>
<path d="M236.898 195.938V196.624L230.738 200.218V199.531L236.898 195.938Z" fill="#242A31"/>
<path d="M230.738 199.531V200.218L224.533 196.624V195.938L230.738 199.531Z" fill="#242A31"/>
<path d="M229.55 200.219V200.905L223.391 204.488V203.801L229.55 200.219Z" fill="#242A31"/>
<path d="M223.391 203.801V204.488L217.186 200.905V200.219L223.391 203.801Z" fill="#242A31"/>
<path d="M222.202 204.5V205.187L216.043 208.769V208.082L222.202 204.5Z" fill="#242A31"/>
<path d="M216.043 208.082V208.769L209.838 205.175V204.5L216.043 208.082Z" fill="#242A31"/>
<path d="M214.855 208.766V209.452L208.695 213.046V212.359L214.855 208.766Z" fill="#242A31"/>
<path d="M208.695 212.359V213.046L202.49 209.452V208.766L208.695 212.359Z" fill="#242A31"/>
<path d="M207.507 213.047V213.734L201.336 217.316L201.347 216.641L207.507 213.047Z" fill="#242A31"/>
<path d="M201.347 216.641L201.336 217.316L195.131 213.734L195.142 213.047L201.347 216.641Z" fill="#242A31"/>
<path d="M200.159 217.328V218.015L194 221.597V220.91L200.159 217.328Z" fill="#242A31"/>
<path d="M194 220.91V221.597L187.795 218.015V217.328L194 220.91Z" fill="#242A31"/>
<path d="M192.481 221.793V222.48L180.311 229.564V228.877L192.481 221.793Z" fill="#242A31"/>
<path d="M180.31 228.879V229.566L174.105 225.984V225.297L180.31 228.879Z" fill="#242A31"/>
<path d="M270.095 185.613V186.3L263.936 189.882V189.196L270.095 185.613Z" fill="#242A31"/>
<path d="M263.935 189.196V189.882L257.719 186.3L257.73 185.613L263.935 189.196Z" fill="#242A31"/>
<path d="M262.747 189.895V190.57L256.588 194.163V193.477L262.747 189.895Z" fill="#242A31"/>
<path d="M256.588 193.477V194.163L250.383 190.569V189.883L256.588 193.477Z" fill="#242A31"/>
<path d="M255.4 194.164V194.851L249.24 198.433V197.746L255.4 194.164Z" fill="#242A31"/>
<path d="M249.24 197.746V198.433L243.035 194.851V194.164L249.24 197.746Z" fill="#242A31"/>
<path d="M248.052 198.445V199.132L241.881 202.714L241.892 202.028L248.052 198.445Z" fill="#242A31"/>
<path d="M241.892 202.028L241.881 202.714L235.676 199.132V198.445L241.892 202.028Z" fill="#242A31"/>
<path d="M240.704 202.715V203.402L234.533 206.995L234.545 206.309L240.704 202.715Z" fill="#242A31"/>
<path d="M234.545 206.309L234.533 206.995L228.328 203.402V202.715L234.545 206.309Z" fill="#242A31"/>
<path d="M233.356 206.992V207.679L227.186 211.261L227.197 210.586L233.356 206.992Z" fill="#242A31"/>
<path d="M227.197 210.586L227.185 211.261L220.98 207.679V206.992L227.197 210.586Z" fill="#242A31"/>
<path d="M226.009 211.273V211.949L219.838 215.542L219.849 214.856L226.009 211.273Z" fill="#242A31"/>
<path d="M219.849 214.856L219.838 215.542L213.633 211.96L213.644 211.273L219.849 214.856Z" fill="#242A31"/>
<path d="M218.661 215.555V216.241L212.502 219.824V219.137L218.661 215.555Z" fill="#242A31"/>
<path d="M212.502 219.137V219.823L206.285 216.23L206.297 215.543L212.502 219.137Z" fill="#242A31"/>
<path d="M211.314 219.824V220.511L205.154 224.093V223.418L211.314 219.824Z" fill="#242A31"/>
<path d="M205.154 223.418V224.093L198.938 220.511L198.949 219.824L205.154 223.418Z" fill="#242A31"/>
<path d="M203.771 224.219L203.76 224.905L188.059 234.05V233.363L203.771 224.219Z" fill="#242A31"/>
<path d="M188.059 233.363V234.05L181.854 230.456V229.77L188.059 233.363Z" fill="#242A31"/>
<path d="M277.796 190.434V191.12L271.637 194.714V194.027L277.796 190.434Z" fill="#242A31"/>
<path d="M271.637 194.027V194.714L265.432 191.12V190.434L271.637 194.027Z" fill="#242A31"/>
<path d="M270.505 194.68V195.366L264.334 198.96V198.273L270.505 194.68Z" fill="#242A31"/>
<path d="M264.334 198.273V198.96L258.129 195.366V194.68L264.334 198.273Z" fill="#242A31"/>
<path d="M263.216 198.926V199.612L257.045 203.195L257.056 202.508L263.216 198.926Z" fill="#242A31"/>
<path d="M257.056 202.508L257.045 203.195L250.84 199.612L250.851 198.926L257.056 202.508Z" fill="#242A31"/>
<path d="M255.925 203.172V203.859L249.754 207.441V206.754L255.925 203.172Z" fill="#242A31"/>
<path d="M249.754 206.754V207.441L243.549 203.859V203.172L249.754 206.754Z" fill="#242A31"/>
<path d="M248.657 207.395V208.081L220.684 224.367V223.681L248.657 207.395Z" fill="#242A31"/>
<path d="M220.683 223.68V224.366L214.479 220.773V220.086L220.683 223.68Z" fill="#242A31"/>
<path d="M219.22 224.527V225.214L213.061 228.796V228.121L219.22 224.527Z" fill="#242A31"/>
<path d="M213.06 228.121V228.796L206.855 225.214V224.527L213.06 228.121Z" fill="#242A31"/>
<path d="M211.793 228.852V229.538L196.08 238.683V237.996L211.793 228.852Z" fill="#242A31"/>
<path d="M196.08 237.996V238.683L189.875 235.089V234.414L196.08 237.996Z" fill="#242A31"/>
<path d="M256.153 157.758L249.983 161.352L243.789 157.758L249.96 154.176L256.153 157.758Z" fill="#37404A"/>
<path d="M248.417 162.266L242.246 165.848L236.041 162.266L242.212 158.672L248.417 162.266Z" fill="#37404A"/>
<path d="M240.669 166.766L234.51 170.36L228.305 166.777L234.475 163.184L240.669 166.766Z" fill="#37404A"/>
<path d="M232.933 171.274L226.762 174.867L220.568 171.274L226.728 167.691L232.933 171.274Z" fill="#37404A"/>
<path d="M225.185 175.781L219.025 179.364L212.82 175.781L218.98 172.199L225.185 175.781Z" fill="#37404A"/>
<path d="M217.448 180.293L211.278 183.875L205.084 180.293L211.243 176.699L217.448 180.293Z" fill="#37404A"/>
<path d="M209.7 184.789L203.541 188.383L197.336 184.801L203.507 181.207L209.7 184.789Z" fill="#37404A"/>
<path d="M201.966 189.301L195.795 192.883L189.602 189.301L195.761 185.719L201.966 189.301Z" fill="#37404A"/>
<path d="M194.229 193.809L188.059 197.391L181.854 193.809L188.024 190.215L194.229 193.809Z" fill="#37404A"/>
<path d="M186.481 198.316L180.322 201.899L174.117 198.316L180.276 194.723L186.481 198.316Z" fill="#37404A"/>
<path d="M178.734 202.817L172.574 206.399L166.381 202.817L172.54 199.234L178.734 202.817Z" fill="#37404A"/>
<path d="M170.997 207.324L164.838 210.906L158.633 207.324L164.792 203.73L170.997 207.324Z" fill="#37404A"/>
<path d="M163.26 211.824L157.09 215.418L150.885 211.836L157.055 208.242L163.26 211.824Z" fill="#37404A"/>
<path d="M263.557 162.438L251.01 169.74L244.816 166.157L257.352 158.855L263.557 162.438Z" fill="#37404A"/>
<path d="M249.616 170.551L243.446 174.145L237.252 170.562L243.411 166.969L249.616 170.551Z" fill="#37404A"/>
<path d="M242.224 174.856L236.064 178.438L229.859 174.856L236.03 171.273L242.224 174.856Z" fill="#37404A"/>
<path d="M234.841 179.149L228.682 182.742L222.477 179.16L228.647 175.566L234.841 179.149Z" fill="#37404A"/>
<path d="M227.458 183.449L221.299 187.032L215.094 183.449L221.253 179.867L227.458 183.449Z" fill="#37404A"/>
<path d="M220.077 187.754L213.906 191.336L207.713 187.754L213.872 184.16L220.077 187.754Z" fill="#37404A"/>
<path d="M212.683 192.047L206.524 195.641L200.33 192.047L206.489 188.465L212.683 192.047Z" fill="#37404A"/>
<path d="M205.302 196.348L199.131 199.93L192.938 196.348L199.108 192.754L205.302 196.348Z" fill="#37404A"/>
<path d="M197.919 200.641L191.748 204.235L185.555 200.641L191.714 197.059L197.919 200.641Z" fill="#37404A"/>
<path d="M190.538 204.945L184.367 208.528L178.162 204.945L184.333 201.352L190.538 204.945Z" fill="#37404A"/>
<path d="M183.155 209.235L176.984 212.828L170.779 209.235L176.95 205.652L183.155 209.235Z" fill="#37404A"/>
<path d="M175.693 213.586L164.803 219.915L158.609 216.333L169.488 209.992L175.693 213.586Z" fill="#37404A"/>
<path d="M271.316 166.926L255.683 176.013L249.479 172.431L265.099 163.332L271.316 166.926Z" fill="#37404A"/>
<path d="M254.29 176.836L248.119 180.418L241.914 176.836L248.085 173.242L254.29 176.836Z" fill="#37404A"/>
<path d="M246.999 181.07L240.84 184.653L234.635 181.07L240.794 177.477L246.999 181.07Z" fill="#37404A"/>
<path d="M239.72 185.305L233.56 188.887L227.355 185.305L233.515 181.723L239.72 185.305Z" fill="#37404A"/>
<path d="M232.452 189.539L226.293 193.133L220.076 189.539L226.247 185.957L232.452 189.539Z" fill="#37404A"/>
<path d="M225.173 193.774L219.013 197.367L212.797 193.774L218.968 190.191L225.173 193.774Z" fill="#37404A"/>
<path d="M217.894 198.008L211.734 201.602L205.529 198.008L211.689 194.426L217.894 198.008Z" fill="#37404A"/>
<path d="M210.616 202.254L204.457 205.836L198.252 202.242L204.411 198.66L210.616 202.254Z" fill="#37404A"/>
<path d="M203.337 206.488L197.166 210.07L190.961 206.488L197.132 202.895L203.337 206.488Z" fill="#37404A"/>
<path d="M196.058 210.723L189.898 214.305L183.693 210.723L189.853 207.129L196.058 210.723Z" fill="#37404A"/>
<path d="M188.275 215.258L172.562 224.402L166.357 220.809L182.058 211.664L188.275 215.258Z" fill="#37404A"/>
<path d="M286.811 175.885L278.995 180.429L271.122 175.885L267.591 177.945L261.5 174.42L272.859 167.816L286.811 175.885Z" fill="#37404A"/>
<path d="M266.288 178.84L260.129 182.422L253.924 178.828L260.083 175.246L266.288 178.84Z" fill="#37404A"/>
<path d="M277.442 181.332L271.283 184.926L265.078 181.332L271.237 177.75L277.442 181.332Z" fill="#37404A"/>
<path d="M294.834 180.519L279.201 189.618L272.996 186.024L288.617 176.926L294.834 180.519Z" fill="#37404A"/>
<path d="M258.94 183.11L252.781 186.703L246.576 183.11L252.735 179.527L258.94 183.11Z" fill="#37404A"/>
<path d="M251.593 187.387L245.433 190.98L239.229 187.387L245.388 183.793L251.593 187.387Z" fill="#37404A"/>
<path d="M244.245 191.668L238.086 195.25L231.881 191.668L238.04 188.074L244.245 191.668Z" fill="#37404A"/>
<path d="M236.897 195.938L230.738 199.531L224.533 195.938L230.692 192.355L236.897 195.938Z" fill="#37404A"/>
<path d="M229.55 200.219L223.391 203.801L217.186 200.219L223.345 196.625L229.55 200.219Z" fill="#37404A"/>
<path d="M222.202 204.5L216.043 208.082L209.838 204.5L215.997 200.906L222.202 204.5Z" fill="#37404A"/>
<path d="M214.854 208.766L208.695 212.36L202.49 208.766L208.65 205.184L214.854 208.766Z" fill="#37404A"/>
<path d="M207.507 213.047L201.348 216.641L195.143 213.047L201.302 209.453L207.507 213.047Z" fill="#37404A"/>
<path d="M200.159 217.328L194 220.91L187.795 217.328L193.954 213.734L200.159 217.328Z" fill="#37404A"/>
<path d="M192.48 221.793L180.31 228.878L174.105 225.295L186.275 218.211L192.48 221.793Z" fill="#37404A"/>
<path d="M270.095 185.613L263.935 189.196L257.73 185.613L263.89 182.02L270.095 185.613Z" fill="#37404A"/>
<path d="M262.747 189.894L256.588 193.477L250.383 189.883L256.542 186.301L262.747 189.894Z" fill="#37404A"/>
<path d="M255.399 194.164L249.24 197.747L243.035 194.164L249.194 190.582L255.399 194.164Z" fill="#37404A"/>
<path d="M248.051 198.445L241.892 202.028L235.676 198.445L241.846 194.852L248.051 198.445Z" fill="#37404A"/>
<path d="M240.704 202.711L234.545 206.305L228.328 202.711L234.499 199.129L240.704 202.711Z" fill="#37404A"/>
<path d="M233.356 206.992L227.197 210.586L220.98 206.992L227.151 203.398L233.356 206.992Z" fill="#37404A"/>
<path d="M226.007 211.273L219.848 214.856L213.643 211.273L219.802 207.68L226.007 211.273Z" fill="#37404A"/>
<path d="M218.659 215.555L212.5 219.137L206.295 215.543L212.454 211.961L218.659 215.555Z" fill="#37404A"/>
<path d="M211.312 219.824L205.152 223.418L198.947 219.824L205.107 216.242L211.312 219.824Z" fill="#37404A"/>
<path d="M203.771 224.219L188.059 233.363L181.854 229.769L197.566 220.625L203.771 224.219Z" fill="#37404A"/>
<path d="M277.796 190.434L271.637 194.028L265.432 190.434L271.591 186.852L277.796 190.434Z" fill="#37404A"/>
<path d="M270.505 194.68L264.334 198.274L258.129 194.68L264.3 191.098L270.505 194.68Z" fill="#37404A"/>
<path d="M263.214 198.926L257.055 202.508L250.85 198.926L257.009 195.344L263.214 198.926Z" fill="#37404A"/>
<path d="M255.924 203.172L249.754 206.754L243.549 203.172L249.72 199.578L255.924 203.172Z" fill="#37404A"/>
<path d="M248.657 207.395L220.683 223.681L214.479 220.087L242.452 203.812L248.657 207.395Z" fill="#37404A"/>
<path d="M219.22 224.527L213.06 228.121L206.855 224.527L213.015 220.934L219.22 224.527Z" fill="#37404A"/>
<path d="M211.792 228.852L196.08 237.996L189.875 234.414L205.587 225.27L211.792 228.852Z" fill="#37404A"/>
<path d="M277.121 216.996C276.943 217.252 276.709 217.464 276.436 217.614L252.199 231.623C251.527 231.967 250.782 232.147 250.027 232.147C249.272 232.147 248.528 231.967 247.856 231.623L236.555 225.088C236.285 224.937 236.051 224.73 235.869 224.481C235.435 223.84 235.675 223.096 236.555 222.581L260.78 208.561C261.452 208.223 262.194 208.047 262.946 208.047C263.698 208.047 264.439 208.223 265.111 208.561L276.424 215.108C277.316 215.623 277.544 216.367 277.121 216.996Z" fill="#98A4E0"/>
<path d="M277.121 216.998C276.943 217.254 276.709 217.465 276.436 217.616L252.199 231.624C251.527 231.969 250.782 232.149 250.027 232.149C249.272 232.149 248.528 231.969 247.856 231.624L236.555 225.089C236.285 224.939 236.051 224.732 235.869 224.483C236.047 224.227 236.282 224.015 236.555 223.865L260.78 209.856C261.45 209.512 262.193 209.332 262.946 209.332C263.699 209.332 264.441 209.512 265.111 209.856L276.424 216.391C276.698 216.54 276.936 216.747 277.121 216.998Z" fill="#BECEF9"/>
<path d="M190.721 117.139L189.189 116.257L222.534 96.9727L224.054 97.8654L190.721 117.139Z" fill="#FFD438"/>
<path d="M169.946 173.644L168.414 172.762L168.277 123.32L169.797 124.213L169.946 173.644Z" fill="#FFB700"/>
<path d="M169.797 124.212L168.277 123.319L186.995 112.504L188.526 113.397L169.797 124.212Z" fill="#FFD438"/>
<path d="M188.526 113.398L190.72 117.14L224.053 97.8672L224.179 142.285L169.945 173.644L169.797 124.213L188.526 113.398Z" fill="#FBC70E"/>
<path d="M175.053 174.361L170.985 171.992L170.859 131.328L174.939 133.697L175.053 174.361Z" fill="#D4E2FC"/>
<path d="M174.939 133.699L170.859 131.33L222.716 101.355L226.784 103.725L174.939 133.699Z" fill="#ECF5FE"/>
<path d="M226.785 103.723L226.899 144.398L175.054 174.361L174.939 133.697L226.785 103.723Z" fill="#B5B3C4"/>
<path d="M169.934 168.391V169.959L169.9 170.599H168.414V171.561L174.985 175.361L174.996 171.435L169.934 168.391Z" fill="#FBC70E"/>
<path d="M174.985 176.56L173.454 175.668L173.34 134.352L174.871 135.244L174.985 176.56Z" fill="#FFB700"/>
<path d="M174.871 135.244L173.34 134.351L227.585 102.98L229.116 103.873L174.871 135.244Z" fill="#FFD438"/>
<path d="M229.116 103.875L229.23 145.191L174.985 176.562L174.871 135.246L229.116 103.875Z" fill="#FBC70E"/>
<path d="M174.985 176.561L168.414 172.762V168.676L174.996 172.624L174.985 176.561Z" fill="#FFB700"/>
<path d="M212.111 132.29C212.287 132.19 212.448 132.067 212.591 131.924C212.969 131.584 213.254 131.154 213.42 130.674C213.586 130.193 213.627 129.678 213.54 129.177C212.328 125.744 209.414 124.245 205.735 125.263C200.364 126.751 194.845 133.023 192.628 140.142C192.296 141.217 192.628 142.042 193.405 141.984C193.884 141.849 194.319 141.589 194.666 141.231C195.013 140.874 195.26 140.431 195.382 139.947C197.005 134.705 201.095 130.104 204.981 129.017C205.543 128.804 206.143 128.71 206.743 128.741C207.343 128.772 207.93 128.927 208.467 129.197C209.004 129.467 209.479 129.846 209.863 130.31C210.246 130.773 210.529 131.311 210.694 131.89C210.9 132.565 211.494 132.657 212.111 132.29Z" fill="#ECF5FE"/>
<path d="M215.541 127.359L211.702 137.019L208.045 131.56L215.541 127.359Z" fill="#ECF5FE"/>
<path d="M202.559 153.971C206.684 151.59 210.638 146.646 212.581 141.152C212.958 140.076 212.672 139.195 211.93 139.184C211.187 139.172 210.284 140.031 209.907 141.106C208.17 146.028 204.193 150.342 200.525 151.407C199.956 151.617 199.348 151.705 198.743 151.666C198.137 151.626 197.546 151.461 197.008 151.18C196.47 150.898 195.997 150.508 195.619 150.032C195.24 149.557 194.965 149.008 194.812 148.42C194.56 147.653 193.669 147.63 192.915 148.42C192.535 148.759 192.248 149.189 192.078 149.669C191.908 150.149 191.862 150.664 191.943 151.167C193.086 154.749 196.057 156.282 199.805 155.241C200.774 154.938 201.7 154.511 202.559 153.971V153.971Z" fill="#ECF5FE"/>
<path d="M189.932 153.272L193.2 143.578L197.405 148.328L189.932 153.272Z" fill="#ECF5FE"/>
<g opacity="0.5">
<g style="mix-blend-mode:screen">
<path d="M371.235 204.247L258.304 141.427L256.643 41.3856L369.586 104.206L371.235 204.247Z" fill="#D4F2F8"/>
<path d="M371.235 204.247L258.304 141.427L256.643 41.3856L369.586 104.206L371.235 204.247Z" stroke="#BECEF9"/>
</g>
<path d="M359.614 105.579L265.156 53.0352L265.442 70.2254L359.899 122.758L359.614 105.579Z" fill="#B9D6FB"/>
<path opacity="0.5" d="M301.21 102.686L265.728 82.9548L265.637 77.4727L301.118 97.2151L301.21 102.686Z" fill="#147AFF"/>
<path opacity="0.5" d="M348.781 129.158L331.469 119.521L331.389 114.051L348.689 123.676L348.781 129.158Z" fill="#147AFF"/>
<path opacity="0.5" d="M359.007 134.844L349.82 129.728L349.729 124.258L358.916 129.362L359.007 134.844Z" fill="#147AFF"/>
<path opacity="0.5" d="M310.842 108.051L302.511 103.404L302.42 97.9336L310.75 102.569L310.842 108.051Z" fill="#147AFF"/>
<path opacity="0.5" d="M330.143 118.789L321.812 114.154L321.721 108.672L330.051 113.307L330.143 118.789Z" fill="#147AFF"/>
<path opacity="0.5" d="M320.498 113.422L312.156 108.787L312.064 103.305L320.406 107.94L320.498 113.422Z" fill="#147AFF"/>
<path opacity="0.5" d="M311.974 115.4L294.662 105.775L294.57 100.293L311.883 109.93L311.974 115.4Z" fill="#147AFF"/>
<path opacity="0.5" d="M322.201 121.087L313.013 115.982L312.922 110.5L322.109 115.616L322.201 121.087Z" fill="#147AFF"/>
<path opacity="0.5" d="M273.967 94.2618L265.625 89.6266L265.545 84.1445L273.875 88.7797L273.967 94.2618Z" fill="#147AFF"/>
<path opacity="0.5" d="M293.336 105.032L285.005 100.396L284.914 94.9258L293.245 99.561L293.336 105.032Z" fill="#147AFF"/>
<path opacity="0.5" d="M283.68 99.6642L275.349 95.029L275.258 89.5469L283.6 94.1935L283.68 99.6642Z" fill="#147AFF"/>
<path opacity="0.5" d="M301.438 116.705L265.957 96.9626L265.865 91.4805L301.347 111.223L301.438 116.705Z" fill="#147AFF"/>
<path opacity="0.5" d="M349.009 143.166L331.709 133.541L331.617 128.059L348.929 137.684L349.009 143.166Z" fill="#147AFF"/>
<path opacity="0.5" d="M359.236 148.852L350.048 143.736L349.957 138.266L359.145 143.37L359.236 148.852Z" fill="#147AFF"/>
<path opacity="0.5" d="M311.07 122.063L302.74 117.427L302.648 111.945L310.979 116.581L311.07 122.063Z" fill="#147AFF"/>
<path opacity="0.5" d="M330.382 132.797L322.041 128.162L321.949 122.68L330.291 127.326L330.382 132.797Z" fill="#147AFF"/>
<path opacity="0.5" d="M320.727 127.43L312.396 122.795L312.305 117.312L320.635 121.959L320.727 127.43Z" fill="#147AFF"/>
<path opacity="0.5" d="M274.195 108.27L265.865 103.634L265.773 98.1523L274.104 102.788L274.195 108.27Z" fill="#147AFF"/>
<path opacity="0.5" d="M293.564 119.051L285.234 114.404L285.143 108.934L293.484 113.569L293.564 119.051Z" fill="#147AFF"/>
<path opacity="0.5" d="M283.92 113.684L275.578 109.037L275.486 103.566L283.828 108.202L283.92 113.684Z" fill="#147AFF"/>
<path opacity="0.5" d="M301.78 137.58L266.298 117.838L266.207 112.367L301.689 132.098L301.78 137.58Z" fill="#147AFF"/>
<path opacity="0.5" d="M349.363 164.041L332.05 154.416L331.959 148.934L349.271 158.57L349.363 164.041Z" fill="#147AFF"/>
<path opacity="0.5" d="M359.591 169.727L350.404 164.623L350.312 159.141L359.5 164.257L359.591 169.727Z" fill="#147AFF"/>
<path opacity="0.5" d="M311.425 142.938L303.084 138.302L302.992 132.82L311.334 137.467L311.425 142.938Z" fill="#147AFF"/>
<path opacity="0.5" d="M330.727 153.672L322.396 149.037L322.305 143.566L330.635 148.202L330.727 153.672Z" fill="#147AFF"/>
<path opacity="0.5" d="M321.07 148.305L312.74 143.67L312.648 138.199L320.979 142.834L321.07 148.305Z" fill="#147AFF"/>
<path opacity="0.5" d="M274.539 129.145L266.209 124.51L266.117 119.039L274.459 123.674L274.539 129.145Z" fill="#147AFF"/>
<path opacity="0.5" d="M293.92 139.926L285.578 135.291L285.486 129.809L293.828 134.444L293.92 139.926Z" fill="#147AFF"/>
<path opacity="0.5" d="M284.264 134.559L275.933 129.924L275.842 124.441L284.172 129.077L284.264 134.559Z" fill="#147AFF"/>
<path opacity="0.5" d="M302.02 151.588L266.539 131.846L266.447 126.375L301.929 146.117L302.02 151.588Z" fill="#147AFF"/>
<path opacity="0.5" d="M349.593 178.049L332.281 168.424L332.189 162.953L349.502 172.578L349.593 178.049Z" fill="#147AFF"/>
<path opacity="0.5" d="M359.82 183.739L350.632 178.634L350.541 173.152L359.728 178.268L359.82 183.739Z" fill="#147AFF"/>
<path opacity="0.5" d="M311.654 156.946L303.312 152.311L303.232 146.84L311.563 151.475L311.654 156.946Z" fill="#147AFF"/>
<path opacity="0.5" d="M330.955 167.692L322.625 163.056L322.533 157.574L330.864 162.209L330.955 167.692Z" fill="#147AFF"/>
<path opacity="0.5" d="M321.31 162.324L312.968 157.678L312.877 152.207L321.219 156.842L321.31 162.324Z" fill="#147AFF"/>
<path opacity="0.5" d="M312.785 164.303L295.472 154.677L295.381 149.195L312.693 158.82L312.785 164.303Z" fill="#147AFF"/>
<path opacity="0.5" d="M323.013 169.993L313.826 164.877L313.734 159.406L322.922 164.511L323.013 169.993Z" fill="#147AFF"/>
<path opacity="0.5" d="M333.353 175.751L324.166 170.635L324.074 165.164L333.262 170.269L333.353 175.751Z" fill="#147AFF"/>
<path opacity="0.5" d="M343.445 181.356L334.257 176.252L334.166 170.77L343.354 175.885L343.445 181.356Z" fill="#147AFF"/>
<path opacity="0.5" d="M274.779 143.164L266.437 138.518L266.346 133.047L274.688 137.682L274.779 143.164Z" fill="#147AFF"/>
<path opacity="0.5" d="M294.146 153.934L285.816 149.299L285.725 143.816L294.055 148.463L294.146 153.934Z" fill="#147AFF"/>
<path opacity="0.5" d="M284.492 148.567L276.162 143.931L276.07 138.449L284.401 143.096L284.492 148.567Z" fill="#147AFF"/>
</g>
</svg>
