<svg width="180" height="180" viewBox="0 0 180 180" fill="none" xmlns="http://www.w3.org/2000/svg">
<path d="M0 90C0 139.706 40.2944 180 90 180C139.706 180 180 139.706 180 90C180 40.2944 139.706 0 90 0C40.2944 0 0 40.2944 0 90ZM162 90C162 129.764 129.765 162 90 162C50.2355 162 18 129.764 18 90C18 50.2355 50.2355 18 90 18C129.765 18 162 50.2355 162 90Z" fill="#32BA7C" fill-opacity="0.2"/>
<mask id="mask0_1621_1318" style="mask-type:alpha" maskUnits="userSpaceOnUse" x="90" y="0" width="90" height="180">
<path d="M90 0C113.869 -2.84641e-07 136.761 9.48211 153.64 26.3604C170.518 43.2387 180 66.1305 180 90C180 113.869 170.518 136.761 153.64 153.64C136.761 170.518 113.869 180 90 180V162C109.096 162 127.409 154.414 140.912 140.912C154.414 127.409 162 109.096 162 90C162 70.9044 154.414 52.5909 140.912 39.0883C127.409 25.5857 109.096 18 90 18V0Z" fill="#FF4086"/>
</mask>
<g mask="url(#mask0_1621_1318)">
<path d="M90 8.99999C90 4.02943 94.0397 -0.0466638 98.9855 0.449527C116.322 2.18883 132.852 8.93356 146.513 19.9549C162.517 32.8675 173.617 50.8716 177.965 70.9708C182.313 91.0701 179.647 112.052 170.41 130.425C162.526 146.107 150.262 159.081 135.194 167.83C130.896 170.326 125.532 168.284 123.478 163.758C121.424 159.232 123.466 153.943 127.7 151.341C139.048 144.367 148.293 134.345 154.328 122.34C161.718 107.642 163.851 90.856 160.372 74.7767C156.894 58.6973 148.014 44.294 135.21 33.9639C124.753 25.5266 112.192 20.2223 98.9769 18.5617C94.0451 17.942 90 13.9706 90 8.99999Z" fill="#32BA7C"/>
</g>
<path fill-rule="evenodd" clip-rule="evenodd" d="M129.749 81.6371C131.156 73.9036 129.749 55.1752 109.874 50.4478C104.377 49.1404 91.1553 49.8239 79.4371 64.7256C76.3535 62.9209 72.7784 61.9058 68.9415 61.9058C61.1013 61.9058 53.9188 66.1365 51.164 73.1565C47.4571 82.702 52.2053 94.2919 71.1876 99.2133C69.0037 96.7174 59.2358 90.0737 59.9388 82.3401C60.3675 77.6245 64.8602 74.6066 68.087 73.5179C73.2824 71.7648 80.685 72.2865 86.4757 77.5902C90.6414 68.668 98.6064 64.7639 104.44 63.3579C115.48 61.2487 127.64 66.17 129.749 81.6371Z" fill="#2A3268"/>
<path fill-rule="evenodd" clip-rule="evenodd" d="M91.8223 75.3304C94.7392 73.1527 97.8878 71.8716 100.985 71.3726C119.358 69.311 122.951 82.0247 120.918 88.8883C120.537 90.1738 119.046 95.1279 115.614 97.6237C119.046 96.6878 122.789 93.1993 124.037 91.3841C130.901 81.4008 124.114 65.937 108.649 66.7474C102.305 67.0757 96.3809 70.6183 91.8223 75.3304Z" fill="#2A3268"/>
<path opacity="0.5" fill-rule="evenodd" clip-rule="evenodd" d="M108.519 71.4188C108.831 69.5469 110.804 68.9839 111.821 68.6658C114.548 68.048 118.895 69.2084 121.31 70.7948C117.254 67.3631 112.993 66.505 108.519 66.7391C102.175 67.0674 96.332 70.6732 91.7734 75.3853C94.6903 73.2075 97.8389 71.9265 100.936 71.4275C104.104 71.0917 106.335 71.1068 108.519 71.4188Z" fill="#2A3268"/>
<path d="M68.2168 118.325L100.419 81.5088H113.529L81.669 118.325H68.2168Z" fill="#2A3268"/>
<path d="M92.627 111.757L108.748 130H121.858L99.5048 103.732L92.627 111.757Z" fill="#2A3268"/>
<path d="M67.8789 81.5869L81.5021 97.2939L88.38 89.2698L81.331 81.5869H67.8789Z" fill="#2A3268"/>
</svg>
