<svg width="100" height="100" viewBox="0 0 100 100" fill="none" xmlns="http://www.w3.org/2000/svg">
<path d="M50 100C77.6142 100 100 77.6142 100 50C100 22.3858 77.6142 0 50 0C22.3858 0 0 22.3858 0 50C0 77.6142 22.3858 100 50 100Z" fill="#32BA7C"/>
<path d="M37.2227 72.5555L62.9324 98.2653C84.2258 92.587 99.9987 73.1864 99.9987 50.0003C99.9987 49.5271 99.9987 49.0539 99.9987 48.5807L79.8094 29.9688L37.2227 72.5555Z" fill="#0AA06E"/>
<path d="M51.2606 61.1989C53.4688 63.4071 53.4688 67.1926 51.2606 69.4008L46.6865 73.975C44.4783 76.1832 40.6928 76.1832 38.4846 73.975L18.453 53.7857C16.2448 51.5775 16.2448 47.792 18.453 45.5838L23.0272 41.0097C25.2354 38.8015 29.0208 38.8015 31.2291 41.0097L51.2606 61.1989Z" fill="white"/>
<path d="M68.7686 26.3407C70.9768 24.1325 74.7623 24.1325 76.9705 26.3407L81.5446 30.9149C83.7528 33.1231 83.7528 36.9085 81.5446 39.1168L46.8443 73.6594C44.6361 75.8676 40.8506 75.8676 38.6424 73.6594L34.0683 69.0852C31.8601 66.877 31.8601 63.0915 34.0683 60.8833L68.7686 26.3407Z" fill="white"/>
</svg>
